<mxfile host="drawio-plugin" modified="2023-01-10T19:23:44.873Z" agent="5.0 (Macintosh; Intel Mac OS X 10_15_7) AppleWebKit/537.36 (KHTML, like Gecko) Chrome/104.0.5112.102 Safari/537.36" etag="zuoJjS1egRaft7udBkG9" version="20.5.3" type="embed"><diagram id="R2lEEEUBdFMjLlhIrx00" name="Page-1"><mxGraphModel dx="3029" dy="1046" grid="0" gridSize="10" guides="0" tooltips="1" connect="1" arrows="1" fold="1" page="1" pageScale="1" pageWidth="850" pageHeight="1100" math="0" shadow="0" extFonts="Permanent Marker^https://fonts.googleapis.com/css?family=Permanent+Marker"><root><mxCell id="0"/><mxCell id="1" parent="0"/><mxCell id="dpckr3BGX__RE5u1bgNl-1" value="hall" style="shape=table;startSize=30;container=1;collapsible=1;childLayout=tableLayout;fixedRows=1;rowLines=0;fontStyle=1;align=center;resizeLast=1;" parent="1" vertex="1"><mxGeometry x="-460" y="380" width="250" height="100" as="geometry"><mxRectangle x="-480" y="380" width="60" height="30" as="alternateBounds"/></mxGeometry></mxCell><mxCell id="dpckr3BGX__RE5u1bgNl-2" value="" style="shape=partialRectangle;collapsible=0;dropTarget=0;pointerEvents=0;fillColor=none;points=[[0,0.5],[1,0.5]];portConstraint=eastwest;top=0;left=0;right=0;bottom=1;" parent="dpckr3BGX__RE5u1bgNl-1" vertex="1"><mxGeometry y="30" width="250" height="30" as="geometry"/></mxCell><mxCell id="dpckr3BGX__RE5u1bgNl-3" value="PK" style="shape=partialRectangle;overflow=hidden;connectable=0;fillColor=none;top=0;left=0;bottom=0;right=0;fontStyle=1;" parent="dpckr3BGX__RE5u1bgNl-2" vertex="1"><mxGeometry width="30" height="30" as="geometry"><mxRectangle width="30" height="30" as="alternateBounds"/></mxGeometry></mxCell><mxCell id="dpckr3BGX__RE5u1bgNl-4" value="hall_id int2 NOT NULL " style="shape=partialRectangle;overflow=hidden;connectable=0;fillColor=none;top=0;left=0;bottom=0;right=0;align=left;spacingLeft=6;fontStyle=5;" parent="dpckr3BGX__RE5u1bgNl-2" vertex="1"><mxGeometry x="30" width="220" height="30" as="geometry"><mxRectangle width="220" height="30" as="alternateBounds"/></mxGeometry></mxCell><mxCell id="dpckr3BGX__RE5u1bgNl-5" value="" style="shape=partialRectangle;collapsible=0;dropTarget=0;pointerEvents=0;fillColor=none;points=[[0,0.5],[1,0.5]];portConstraint=eastwest;top=0;left=0;right=0;bottom=0;" parent="dpckr3BGX__RE5u1bgNl-1" vertex="1"><mxGeometry y="60" width="250" height="30" as="geometry"/></mxCell><mxCell id="dpckr3BGX__RE5u1bgNl-6" value="" style="shape=partialRectangle;overflow=hidden;connectable=0;fillColor=none;top=0;left=0;bottom=0;right=0;" parent="dpckr3BGX__RE5u1bgNl-5" vertex="1"><mxGeometry width="30" height="30" as="geometry"><mxRectangle width="30" height="30" as="alternateBounds"/></mxGeometry></mxCell><mxCell id="dpckr3BGX__RE5u1bgNl-7" value="name varchar(255) NOT NULL" style="shape=partialRectangle;overflow=hidden;connectable=0;fillColor=none;top=0;left=0;bottom=0;right=0;align=left;spacingLeft=6;" parent="dpckr3BGX__RE5u1bgNl-5" vertex="1"><mxGeometry x="30" width="220" height="30" as="geometry"><mxRectangle width="220" height="30" as="alternateBounds"/></mxGeometry></mxCell><mxCell id="dpckr3BGX__RE5u1bgNl-21" value="" style="shape=partialRectangle;collapsible=0;dropTarget=0;pointerEvents=0;fillColor=none;points=[[0,0.5],[1,0.5]];portConstraint=eastwest;top=0;left=0;right=0;bottom=0;" parent="1" vertex="1"><mxGeometry x="-90" y="490" width="250" height="40" as="geometry"/></mxCell><mxCell id="dpckr3BGX__RE5u1bgNl-22" value="" style="shape=partialRectangle;overflow=hidden;connectable=0;fillColor=none;top=0;left=0;bottom=0;right=0;" parent="dpckr3BGX__RE5u1bgNl-21" vertex="1"><mxGeometry width="30" height="40" as="geometry"><mxRectangle width="30" height="40" as="alternateBounds"/></mxGeometry></mxCell><mxCell id="dpckr3BGX__RE5u1bgNl-23" value="" style="shape=partialRectangle;overflow=hidden;connectable=0;fillColor=none;top=0;left=0;bottom=0;right=0;align=left;spacingLeft=6;" parent="dpckr3BGX__RE5u1bgNl-21" vertex="1"><mxGeometry x="30" width="220" height="40" as="geometry"><mxRectangle width="220" height="40" as="alternateBounds"/></mxGeometry></mxCell><mxCell id="dpckr3BGX__RE5u1bgNl-25" value="movie" style="shape=table;startSize=30;container=1;collapsible=1;childLayout=tableLayout;fixedRows=1;rowLines=0;fontStyle=1;align=center;resizeLast=1;" parent="1" vertex="1"><mxGeometry x="190" y="380" width="250" height="95" as="geometry"><mxRectangle x="-480" y="380" width="60" height="30" as="alternateBounds"/></mxGeometry></mxCell><mxCell id="dpckr3BGX__RE5u1bgNl-26" value="" style="shape=partialRectangle;collapsible=0;dropTarget=0;pointerEvents=0;fillColor=none;points=[[0,0.5],[1,0.5]];portConstraint=eastwest;top=0;left=0;right=0;bottom=1;" parent="dpckr3BGX__RE5u1bgNl-25" vertex="1"><mxGeometry y="30" width="250" height="35" as="geometry"/></mxCell><mxCell id="dpckr3BGX__RE5u1bgNl-27" value="PK" style="shape=partialRectangle;overflow=hidden;connectable=0;fillColor=none;top=0;left=0;bottom=0;right=0;fontStyle=1;" parent="dpckr3BGX__RE5u1bgNl-26" vertex="1"><mxGeometry width="30" height="35" as="geometry"><mxRectangle width="30" height="35" as="alternateBounds"/></mxGeometry></mxCell><mxCell id="dpckr3BGX__RE5u1bgNl-28" value="movie_id int NOT NULL " style="shape=partialRectangle;overflow=hidden;connectable=0;fillColor=none;top=0;left=0;bottom=0;right=0;align=left;spacingLeft=6;fontStyle=5;" parent="dpckr3BGX__RE5u1bgNl-26" vertex="1"><mxGeometry x="30" width="220" height="35" as="geometry"><mxRectangle width="220" height="35" as="alternateBounds"/></mxGeometry></mxCell><mxCell id="dpckr3BGX__RE5u1bgNl-29" value="" style="shape=partialRectangle;collapsible=0;dropTarget=0;pointerEvents=0;fillColor=none;points=[[0,0.5],[1,0.5]];portConstraint=eastwest;top=0;left=0;right=0;bottom=0;" parent="dpckr3BGX__RE5u1bgNl-25" vertex="1"><mxGeometry y="65" width="250" height="25" as="geometry"/></mxCell><mxCell id="dpckr3BGX__RE5u1bgNl-30" value="" style="shape=partialRectangle;overflow=hidden;connectable=0;fillColor=none;top=0;left=0;bottom=0;right=0;" parent="dpckr3BGX__RE5u1bgNl-29" vertex="1"><mxGeometry width="30" height="25" as="geometry"><mxRectangle width="30" height="25" as="alternateBounds"/></mxGeometry></mxCell><mxCell id="dpckr3BGX__RE5u1bgNl-31" value="title varchar(255) NOT NULL" style="shape=partialRectangle;overflow=hidden;connectable=0;fillColor=none;top=0;left=0;bottom=0;right=0;align=left;spacingLeft=6;" parent="dpckr3BGX__RE5u1bgNl-29" vertex="1"><mxGeometry x="30" width="220" height="25" as="geometry"><mxRectangle width="220" height="25" as="alternateBounds"/></mxGeometry></mxCell><mxCell id="dpckr3BGX__RE5u1bgNl-39" value="session" style="shape=table;startSize=30;container=1;collapsible=1;childLayout=tableLayout;fixedRows=1;rowLines=0;fontStyle=1;align=center;resizeLast=1;" parent="1" vertex="1"><mxGeometry x="-130" y="380" width="250" height="150" as="geometry"/></mxCell><mxCell id="dpckr3BGX__RE5u1bgNl-40" value="" style="shape=partialRectangle;collapsible=0;dropTarget=0;pointerEvents=0;fillColor=none;points=[[0,0.5],[1,0.5]];portConstraint=eastwest;top=0;left=0;right=0;bottom=1;" parent="dpckr3BGX__RE5u1bgNl-39" vertex="1"><mxGeometry y="30" width="250" height="30" as="geometry"/></mxCell><mxCell id="dpckr3BGX__RE5u1bgNl-41" value="PK" style="shape=partialRectangle;overflow=hidden;connectable=0;fillColor=none;top=0;left=0;bottom=0;right=0;fontStyle=1;" parent="dpckr3BGX__RE5u1bgNl-40" vertex="1"><mxGeometry width="30" height="30" as="geometry"><mxRectangle width="30" height="30" as="alternateBounds"/></mxGeometry></mxCell><mxCell id="dpckr3BGX__RE5u1bgNl-42" value="session_id int NOT NULL " style="shape=partialRectangle;overflow=hidden;connectable=0;fillColor=none;top=0;left=0;bottom=0;right=0;align=left;spacingLeft=6;fontStyle=5;" parent="dpckr3BGX__RE5u1bgNl-40" vertex="1"><mxGeometry x="30" width="220" height="30" as="geometry"><mxRectangle width="220" height="30" as="alternateBounds"/></mxGeometry></mxCell><mxCell id="dpckr3BGX__RE5u1bgNl-43" value="" style="shape=partialRectangle;collapsible=0;dropTarget=0;pointerEvents=0;fillColor=none;points=[[0,0.5],[1,0.5]];portConstraint=eastwest;top=0;left=0;right=0;bottom=0;" parent="dpckr3BGX__RE5u1bgNl-39" vertex="1"><mxGeometry y="60" width="250" height="20" as="geometry"/></mxCell><mxCell id="dpckr3BGX__RE5u1bgNl-44" value="FK1" style="shape=partialRectangle;overflow=hidden;connectable=0;fillColor=none;top=0;left=0;bottom=0;right=0;" parent="dpckr3BGX__RE5u1bgNl-43" vertex="1"><mxGeometry width="30" height="20" as="geometry"><mxRectangle width="30" height="20" as="alternateBounds"/></mxGeometry></mxCell><mxCell id="dpckr3BGX__RE5u1bgNl-45" value="hall_id int2 NOT NULL" style="shape=partialRectangle;overflow=hidden;connectable=0;fillColor=none;top=0;left=0;bottom=0;right=0;align=left;spacingLeft=6;" parent="dpckr3BGX__RE5u1bgNl-43" vertex="1"><mxGeometry x="30" width="220" height="20" as="geometry"><mxRectangle width="220" height="20" as="alternateBounds"/></mxGeometry></mxCell><mxCell id="dpckr3BGX__RE5u1bgNl-46" value="" style="shape=partialRectangle;collapsible=0;dropTarget=0;pointerEvents=0;fillColor=none;points=[[0,0.5],[1,0.5]];portConstraint=eastwest;top=0;left=0;right=0;bottom=0;" parent="dpckr3BGX__RE5u1bgNl-39" vertex="1"><mxGeometry y="80" width="250" height="20" as="geometry"/></mxCell><mxCell id="dpckr3BGX__RE5u1bgNl-47" value="" style="shape=partialRectangle;overflow=hidden;connectable=0;fillColor=none;top=0;left=0;bottom=0;right=0;" parent="dpckr3BGX__RE5u1bgNl-46" vertex="1"><mxGeometry width="30" height="20" as="geometry"><mxRectangle width="30" height="20" as="alternateBounds"/></mxGeometry></mxCell><mxCell id="dpckr3BGX__RE5u1bgNl-48" value="movie_id int NOT NULL" style="shape=partialRectangle;overflow=hidden;connectable=0;fillColor=none;top=0;left=0;bottom=0;right=0;align=left;spacingLeft=6;" parent="dpckr3BGX__RE5u1bgNl-46" vertex="1"><mxGeometry x="30" width="220" height="20" as="geometry"><mxRectangle width="220" height="20" as="alternateBounds"/></mxGeometry></mxCell><mxCell id="9" value="" style="shape=partialRectangle;collapsible=0;dropTarget=0;pointerEvents=0;fillColor=none;points=[[0,0.5],[1,0.5]];portConstraint=eastwest;top=0;left=0;right=0;bottom=0;" parent="dpckr3BGX__RE5u1bgNl-39" vertex="1"><mxGeometry y="100" width="250" height="20" as="geometry"/></mxCell><mxCell id="10" value="" style="shape=partialRectangle;overflow=hidden;connectable=0;fillColor=none;top=0;left=0;bottom=0;right=0;" parent="9" vertex="1"><mxGeometry width="30" height="20" as="geometry"><mxRectangle width="30" height="20" as="alternateBounds"/></mxGeometry></mxCell><mxCell id="11" value="time_start timestamptz NOT NULL" style="shape=partialRectangle;overflow=hidden;connectable=0;fillColor=none;top=0;left=0;bottom=0;right=0;align=left;spacingLeft=6;" parent="9" vertex="1"><mxGeometry x="30" width="220" height="20" as="geometry"><mxRectangle width="220" height="20" as="alternateBounds"/></mxGeometry></mxCell><mxCell id="12" value="" style="shape=partialRectangle;collapsible=0;dropTarget=0;pointerEvents=0;fillColor=none;points=[[0,0.5],[1,0.5]];portConstraint=eastwest;top=0;left=0;right=0;bottom=0;" parent="dpckr3BGX__RE5u1bgNl-39" vertex="1"><mxGeometry y="120" width="250" height="20" as="geometry"/></mxCell><mxCell id="13" value="" style="shape=partialRectangle;overflow=hidden;connectable=0;fillColor=none;top=0;left=0;bottom=0;right=0;" parent="12" vertex="1"><mxGeometry width="30" height="20" as="geometry"><mxRectangle width="30" height="20" as="alternateBounds"/></mxGeometry></mxCell><mxCell id="14" value="time_end timestamptz NOT NULL" style="shape=partialRectangle;overflow=hidden;connectable=0;fillColor=none;top=0;left=0;bottom=0;right=0;align=left;spacingLeft=6;" parent="12" vertex="1"><mxGeometry x="30" width="220" height="20" as="geometry"><mxRectangle width="220" height="20" as="alternateBounds"/></mxGeometry></mxCell><mxCell id="dpckr3BGX__RE5u1bgNl-52" value="FK2" style="shape=partialRectangle;overflow=hidden;connectable=0;fillColor=none;top=0;left=0;bottom=0;right=0;" parent="1" vertex="1"><mxGeometry x="-130" y="460" width="30" height="20" as="geometry"><mxRectangle width="30" height="20" as="alternateBounds"/></mxGeometry></mxCell><mxCell id="dpckr3BGX__RE5u1bgNl-55" value="ticket" style="shape=table;startSize=30;container=1;collapsible=1;childLayout=tableLayout;fixedRows=1;rowLines=0;fontStyle=1;align=center;resizeLast=1;" parent="1" vertex="1"><mxGeometry x="-60" y="70" width="310" height="160" as="geometry"/></mxCell><mxCell id="dpckr3BGX__RE5u1bgNl-56" value="" style="shape=partialRectangle;collapsible=0;dropTarget=0;pointerEvents=0;fillColor=none;points=[[0,0.5],[1,0.5]];portConstraint=eastwest;top=0;left=0;right=0;bottom=1;" parent="dpckr3BGX__RE5u1bgNl-55" vertex="1"><mxGeometry y="30" width="310" height="30" as="geometry"/></mxCell><mxCell id="dpckr3BGX__RE5u1bgNl-57" value="PK" style="shape=partialRectangle;overflow=hidden;connectable=0;fillColor=none;top=0;left=0;bottom=0;right=0;fontStyle=1;" parent="dpckr3BGX__RE5u1bgNl-56" vertex="1"><mxGeometry width="30" height="30" as="geometry"><mxRectangle width="30" height="30" as="alternateBounds"/></mxGeometry></mxCell><mxCell id="dpckr3BGX__RE5u1bgNl-58" value="ticket_id int NOT NULL " style="shape=partialRectangle;overflow=hidden;connectable=0;fillColor=none;top=0;left=0;bottom=0;right=0;align=left;spacingLeft=6;fontStyle=5;" parent="dpckr3BGX__RE5u1bgNl-56" vertex="1"><mxGeometry x="30" width="280" height="30" as="geometry"><mxRectangle width="280" height="30" as="alternateBounds"/></mxGeometry></mxCell><mxCell id="dpckr3BGX__RE5u1bgNl-59" value="" style="shape=partialRectangle;collapsible=0;dropTarget=0;pointerEvents=0;fillColor=none;points=[[0,0.5],[1,0.5]];portConstraint=eastwest;top=0;left=0;right=0;bottom=0;" parent="dpckr3BGX__RE5u1bgNl-55" vertex="1"><mxGeometry y="60" width="310" height="20" as="geometry"/></mxCell><mxCell id="dpckr3BGX__RE5u1bgNl-60" value="FK1" style="shape=partialRectangle;overflow=hidden;connectable=0;fillColor=none;top=0;left=0;bottom=0;right=0;" parent="dpckr3BGX__RE5u1bgNl-59" vertex="1"><mxGeometry width="30" height="20" as="geometry"><mxRectangle width="30" height="20" as="alternateBounds"/></mxGeometry></mxCell><mxCell id="dpckr3BGX__RE5u1bgNl-61" value="session_id int NOT NULL" style="shape=partialRectangle;overflow=hidden;connectable=0;fillColor=none;top=0;left=0;bottom=0;right=0;align=left;spacingLeft=6;" parent="dpckr3BGX__RE5u1bgNl-59" vertex="1"><mxGeometry x="30" width="280" height="20" as="geometry"><mxRectangle width="280" height="20" as="alternateBounds"/></mxGeometry></mxCell><mxCell id="dpckr3BGX__RE5u1bgNl-62" value="" style="shape=partialRectangle;collapsible=0;dropTarget=0;pointerEvents=0;fillColor=none;points=[[0,0.5],[1,0.5]];portConstraint=eastwest;top=0;left=0;right=0;bottom=0;" parent="dpckr3BGX__RE5u1bgNl-55" vertex="1"><mxGeometry y="80" width="310" height="20" as="geometry"/></mxCell><mxCell id="dpckr3BGX__RE5u1bgNl-63" value="FK2" style="shape=partialRectangle;overflow=hidden;connectable=0;fillColor=none;top=0;left=0;bottom=0;right=0;" parent="dpckr3BGX__RE5u1bgNl-62" vertex="1"><mxGeometry width="30" height="20" as="geometry"><mxRectangle width="30" height="20" as="alternateBounds"/></mxGeometry></mxCell><mxCell id="dpckr3BGX__RE5u1bgNl-64" value="seat_id int NOT NULL" style="shape=partialRectangle;overflow=hidden;connectable=0;fillColor=none;top=0;left=0;bottom=0;right=0;align=left;spacingLeft=6;" parent="dpckr3BGX__RE5u1bgNl-62" vertex="1"><mxGeometry x="30" width="280" height="20" as="geometry"><mxRectangle width="280" height="20" as="alternateBounds"/></mxGeometry></mxCell><mxCell id="dpckr3BGX__RE5u1bgNl-143" value="" style="shape=partialRectangle;collapsible=0;dropTarget=0;pointerEvents=0;fillColor=none;points=[[0,0.5],[1,0.5]];portConstraint=eastwest;top=0;left=0;right=0;bottom=0;" parent="dpckr3BGX__RE5u1bgNl-55" vertex="1"><mxGeometry y="100" width="310" height="20" as="geometry"/></mxCell><mxCell id="dpckr3BGX__RE5u1bgNl-144" value="FK3" style="shape=partialRectangle;overflow=hidden;connectable=0;fillColor=none;top=0;left=0;bottom=0;right=0;" parent="dpckr3BGX__RE5u1bgNl-143" vertex="1"><mxGeometry width="30" height="20" as="geometry"><mxRectangle width="30" height="20" as="alternateBounds"/></mxGeometry></mxCell><mxCell id="dpckr3BGX__RE5u1bgNl-145" value="price_id int NOT NULL" style="shape=partialRectangle;overflow=hidden;connectable=0;fillColor=none;top=0;left=0;bottom=0;right=0;align=left;spacingLeft=6;" parent="dpckr3BGX__RE5u1bgNl-143" vertex="1"><mxGeometry x="30" width="280" height="20" as="geometry"><mxRectangle width="280" height="20" as="alternateBounds"/></mxGeometry></mxCell><mxCell id="dpckr3BGX__RE5u1bgNl-134" value="" style="shape=partialRectangle;collapsible=0;dropTarget=0;pointerEvents=0;fillColor=none;points=[[0,0.5],[1,0.5]];portConstraint=eastwest;top=0;left=0;right=0;bottom=0;" parent="dpckr3BGX__RE5u1bgNl-55" vertex="1"><mxGeometry y="120" width="310" height="20" as="geometry"/></mxCell><mxCell id="dpckr3BGX__RE5u1bgNl-135" value="" style="shape=partialRectangle;overflow=hidden;connectable=0;fillColor=none;top=0;left=0;bottom=0;right=0;" parent="dpckr3BGX__RE5u1bgNl-134" vertex="1"><mxGeometry width="30" height="20" as="geometry"><mxRectangle width="30" height="20" as="alternateBounds"/></mxGeometry></mxCell><mxCell id="dpckr3BGX__RE5u1bgNl-136" value="sale_timestamp timestamptz NOT NULL" style="shape=partialRectangle;overflow=hidden;connectable=0;fillColor=none;top=0;left=0;bottom=0;right=0;align=left;spacingLeft=6;" parent="dpckr3BGX__RE5u1bgNl-134" vertex="1"><mxGeometry x="30" width="280" height="20" as="geometry"><mxRectangle width="280" height="20" as="alternateBounds"/></mxGeometry></mxCell><mxCell id="dpckr3BGX__RE5u1bgNl-137" value="" style="shape=partialRectangle;collapsible=0;dropTarget=0;pointerEvents=0;fillColor=none;points=[[0,0.5],[1,0.5]];portConstraint=eastwest;top=0;left=0;right=0;bottom=0;" parent="dpckr3BGX__RE5u1bgNl-55" vertex="1"><mxGeometry y="140" width="310" height="20" as="geometry"/></mxCell><mxCell id="dpckr3BGX__RE5u1bgNl-138" value="" style="shape=partialRectangle;overflow=hidden;connectable=0;fillColor=none;top=0;left=0;bottom=0;right=0;" parent="dpckr3BGX__RE5u1bgNl-137" vertex="1"><mxGeometry width="30" height="20" as="geometry"><mxRectangle width="30" height="20" as="alternateBounds"/></mxGeometry></mxCell><mxCell id="dpckr3BGX__RE5u1bgNl-139" value="" style="shape=partialRectangle;overflow=hidden;connectable=0;fillColor=none;top=0;left=0;bottom=0;right=0;align=left;spacingLeft=6;" parent="dpckr3BGX__RE5u1bgNl-137" vertex="1"><mxGeometry x="30" width="280" height="20" as="geometry"><mxRectangle width="280" height="20" as="alternateBounds"/></mxGeometry></mxCell><mxCell id="dpckr3BGX__RE5u1bgNl-65" value="" style="endArrow=ERzeroToMany;startArrow=ERone;endFill=1;startFill=0;entryX=0;entryY=0.5;entryDx=0;entryDy=0;exitX=0;exitY=0.5;exitDx=0;exitDy=0;edgeStyle=orthogonalEdgeStyle;" parent="1" source="dpckr3BGX__RE5u1bgNl-40" target="dpckr3BGX__RE5u1bgNl-59" edge="1"><mxGeometry width="100" height="100" relative="1" as="geometry"><mxPoint x="-220" y="434.9999999999998" as="sourcePoint"/><mxPoint x="-110" y="459.9999999999998" as="targetPoint"/><Array as="points"><mxPoint x="-150" y="425"/><mxPoint x="-150" y="140"/></Array></mxGeometry></mxCell><mxCell id="dpckr3BGX__RE5u1bgNl-66" value="seat" style="shape=table;startSize=30;container=1;collapsible=1;childLayout=tableLayout;fixedRows=1;rowLines=0;fontStyle=1;align=center;resizeLast=1;" parent="1" vertex="1"><mxGeometry x="-460" y="500" width="250" height="130" as="geometry"/></mxCell><mxCell id="dpckr3BGX__RE5u1bgNl-67" value="" style="shape=partialRectangle;collapsible=0;dropTarget=0;pointerEvents=0;fillColor=none;points=[[0,0.5],[1,0.5]];portConstraint=eastwest;top=0;left=0;right=0;bottom=1;" parent="dpckr3BGX__RE5u1bgNl-66" vertex="1"><mxGeometry y="30" width="250" height="30" as="geometry"/></mxCell><mxCell id="dpckr3BGX__RE5u1bgNl-68" value="PK" style="shape=partialRectangle;overflow=hidden;connectable=0;fillColor=none;top=0;left=0;bottom=0;right=0;fontStyle=1;" parent="dpckr3BGX__RE5u1bgNl-67" vertex="1"><mxGeometry width="30" height="30" as="geometry"><mxRectangle width="30" height="30" as="alternateBounds"/></mxGeometry></mxCell><mxCell id="dpckr3BGX__RE5u1bgNl-69" value="seat_id int NOT NULL " style="shape=partialRectangle;overflow=hidden;connectable=0;fillColor=none;top=0;left=0;bottom=0;right=0;align=left;spacingLeft=6;fontStyle=5;" parent="dpckr3BGX__RE5u1bgNl-67" vertex="1"><mxGeometry x="30" width="220" height="30" as="geometry"><mxRectangle width="220" height="30" as="alternateBounds"/></mxGeometry></mxCell><mxCell id="dpckr3BGX__RE5u1bgNl-70" value="" style="shape=partialRectangle;collapsible=0;dropTarget=0;pointerEvents=0;fillColor=none;points=[[0,0.5],[1,0.5]];portConstraint=eastwest;top=0;left=0;right=0;bottom=0;" parent="dpckr3BGX__RE5u1bgNl-66" vertex="1"><mxGeometry y="60" width="250" height="20" as="geometry"/></mxCell><mxCell id="dpckr3BGX__RE5u1bgNl-71" value="FK1" style="shape=partialRectangle;overflow=hidden;connectable=0;fillColor=none;top=0;left=0;bottom=0;right=0;" parent="dpckr3BGX__RE5u1bgNl-70" vertex="1"><mxGeometry width="30" height="20" as="geometry"><mxRectangle width="30" height="20" as="alternateBounds"/></mxGeometry></mxCell><mxCell id="dpckr3BGX__RE5u1bgNl-72" value="hall_id int2 NOT NULL" style="shape=partialRectangle;overflow=hidden;connectable=0;fillColor=none;top=0;left=0;bottom=0;right=0;align=left;spacingLeft=6;" parent="dpckr3BGX__RE5u1bgNl-70" vertex="1"><mxGeometry x="30" width="220" height="20" as="geometry"><mxRectangle width="220" height="20" as="alternateBounds"/></mxGeometry></mxCell><mxCell id="dpckr3BGX__RE5u1bgNl-73" value="" style="shape=partialRectangle;collapsible=0;dropTarget=0;pointerEvents=0;fillColor=none;points=[[0,0.5],[1,0.5]];portConstraint=eastwest;top=0;left=0;right=0;bottom=0;" parent="dpckr3BGX__RE5u1bgNl-66" vertex="1"><mxGeometry y="80" width="250" height="20" as="geometry"/></mxCell><mxCell id="dpckr3BGX__RE5u1bgNl-74" value="" style="shape=partialRectangle;overflow=hidden;connectable=0;fillColor=none;top=0;left=0;bottom=0;right=0;" parent="dpckr3BGX__RE5u1bgNl-73" vertex="1"><mxGeometry width="30" height="20" as="geometry"><mxRectangle width="30" height="20" as="alternateBounds"/></mxGeometry></mxCell><mxCell id="dpckr3BGX__RE5u1bgNl-75" value="seat_cat_id int2 NOT NULL" style="shape=partialRectangle;overflow=hidden;connectable=0;fillColor=none;top=0;left=0;bottom=0;right=0;align=left;spacingLeft=6;" parent="dpckr3BGX__RE5u1bgNl-73" vertex="1"><mxGeometry x="30" width="220" height="20" as="geometry"><mxRectangle width="220" height="20" as="alternateBounds"/></mxGeometry></mxCell><mxCell id="6" value="" style="shape=partialRectangle;collapsible=0;dropTarget=0;pointerEvents=0;fillColor=none;points=[[0,0.5],[1,0.5]];portConstraint=eastwest;top=0;left=0;right=0;bottom=0;" parent="dpckr3BGX__RE5u1bgNl-66" vertex="1"><mxGeometry y="100" width="250" height="20" as="geometry"/></mxCell><mxCell id="7" value="" style="shape=partialRectangle;overflow=hidden;connectable=0;fillColor=none;top=0;left=0;bottom=0;right=0;" parent="6" vertex="1"><mxGeometry width="30" height="20" as="geometry"><mxRectangle width="30" height="20" as="alternateBounds"/></mxGeometry></mxCell><mxCell id="8" value="seat_number int2 NOT NULL" style="shape=partialRectangle;overflow=hidden;connectable=0;fillColor=none;top=0;left=0;bottom=0;right=0;align=left;spacingLeft=6;" parent="6" vertex="1"><mxGeometry x="30" width="220" height="20" as="geometry"><mxRectangle width="220" height="20" as="alternateBounds"/></mxGeometry></mxCell><mxCell id="dpckr3BGX__RE5u1bgNl-77" value="seat_category" style="shape=table;startSize=30;container=1;collapsible=1;childLayout=tableLayout;fixedRows=1;rowLines=0;fontStyle=1;align=center;resizeLast=1;" parent="1" vertex="1"><mxGeometry x="-460" y="650" width="250" height="100" as="geometry"/></mxCell><mxCell id="dpckr3BGX__RE5u1bgNl-78" value="" style="shape=partialRectangle;collapsible=0;dropTarget=0;pointerEvents=0;fillColor=none;points=[[0,0.5],[1,0.5]];portConstraint=eastwest;top=0;left=0;right=0;bottom=1;" parent="dpckr3BGX__RE5u1bgNl-77" vertex="1"><mxGeometry y="30" width="250" height="30" as="geometry"/></mxCell><mxCell id="dpckr3BGX__RE5u1bgNl-79" value="PK" style="shape=partialRectangle;overflow=hidden;connectable=0;fillColor=none;top=0;left=0;bottom=0;right=0;fontStyle=1;" parent="dpckr3BGX__RE5u1bgNl-78" vertex="1"><mxGeometry width="30" height="30" as="geometry"><mxRectangle width="30" height="30" as="alternateBounds"/></mxGeometry></mxCell><mxCell id="dpckr3BGX__RE5u1bgNl-80" value="seat_cat_id int2 NOT NULL " style="shape=partialRectangle;overflow=hidden;connectable=0;fillColor=none;top=0;left=0;bottom=0;right=0;align=left;spacingLeft=6;fontStyle=5;" parent="dpckr3BGX__RE5u1bgNl-78" vertex="1"><mxGeometry x="30" width="220" height="30" as="geometry"><mxRectangle width="220" height="30" as="alternateBounds"/></mxGeometry></mxCell><mxCell id="dpckr3BGX__RE5u1bgNl-81" value="" style="shape=partialRectangle;collapsible=0;dropTarget=0;pointerEvents=0;fillColor=none;points=[[0,0.5],[1,0.5]];portConstraint=eastwest;top=0;left=0;right=0;bottom=0;" parent="dpckr3BGX__RE5u1bgNl-77" vertex="1"><mxGeometry y="60" width="250" height="20" as="geometry"/></mxCell><mxCell id="dpckr3BGX__RE5u1bgNl-82" value="" style="shape=partialRectangle;overflow=hidden;connectable=0;fillColor=none;top=0;left=0;bottom=0;right=0;" parent="dpckr3BGX__RE5u1bgNl-81" vertex="1"><mxGeometry width="30" height="20" as="geometry"><mxRectangle width="30" height="20" as="alternateBounds"/></mxGeometry></mxCell><mxCell id="dpckr3BGX__RE5u1bgNl-83" value="name varchar(255) NOT NULL" style="shape=partialRectangle;overflow=hidden;connectable=0;fillColor=none;top=0;left=0;bottom=0;right=0;align=left;spacingLeft=6;" parent="dpckr3BGX__RE5u1bgNl-81" vertex="1"><mxGeometry x="30" width="220" height="20" as="geometry"><mxRectangle width="220" height="20" as="alternateBounds"/></mxGeometry></mxCell><mxCell id="dpckr3BGX__RE5u1bgNl-84" value="" style="shape=partialRectangle;collapsible=0;dropTarget=0;pointerEvents=0;fillColor=none;points=[[0,0.5],[1,0.5]];portConstraint=eastwest;top=0;left=0;right=0;bottom=0;" parent="dpckr3BGX__RE5u1bgNl-77" vertex="1"><mxGeometry y="80" width="250" height="20" as="geometry"/></mxCell><mxCell id="dpckr3BGX__RE5u1bgNl-85" value="" style="shape=partialRectangle;overflow=hidden;connectable=0;fillColor=none;top=0;left=0;bottom=0;right=0;" parent="dpckr3BGX__RE5u1bgNl-84" vertex="1"><mxGeometry width="30" height="20" as="geometry"><mxRectangle width="30" height="20" as="alternateBounds"/></mxGeometry></mxCell><mxCell id="dpckr3BGX__RE5u1bgNl-86" value="" style="shape=partialRectangle;overflow=hidden;connectable=0;fillColor=none;top=0;left=0;bottom=0;right=0;align=left;spacingLeft=6;" parent="dpckr3BGX__RE5u1bgNl-84" vertex="1"><mxGeometry x="30" width="220" height="20" as="geometry"><mxRectangle width="220" height="20" as="alternateBounds"/></mxGeometry></mxCell><mxCell id="dpckr3BGX__RE5u1bgNl-87" value="" style="edgeStyle=entityRelationEdgeStyle;endArrow=ERzeroToMany;startArrow=ERone;endFill=1;startFill=0;entryX=1;entryY=0.5;entryDx=0;entryDy=0;" parent="1" source="dpckr3BGX__RE5u1bgNl-78" target="dpckr3BGX__RE5u1bgNl-73" edge="1"><mxGeometry width="100" height="100" relative="1" as="geometry"><mxPoint x="-470" y="435" as="sourcePoint"/><mxPoint x="-530" y="640" as="targetPoint"/></mxGeometry></mxCell><mxCell id="dpckr3BGX__RE5u1bgNl-120" value="price" style="shape=table;startSize=30;container=1;collapsible=1;childLayout=tableLayout;fixedRows=1;rowLines=0;fontStyle=1;align=center;resizeLast=1;" parent="1" vertex="1"><mxGeometry x="-470" y="70" width="250" height="160" as="geometry"><mxRectangle x="-480" y="380" width="60" height="30" as="alternateBounds"/></mxGeometry></mxCell><mxCell id="dpckr3BGX__RE5u1bgNl-121" value="" style="shape=partialRectangle;collapsible=0;dropTarget=0;pointerEvents=0;fillColor=none;points=[[0,0.5],[1,0.5]];portConstraint=eastwest;top=0;left=0;right=0;bottom=1;" parent="dpckr3BGX__RE5u1bgNl-120" vertex="1"><mxGeometry y="30" width="250" height="30" as="geometry"/></mxCell><mxCell id="dpckr3BGX__RE5u1bgNl-122" value="PK" style="shape=partialRectangle;overflow=hidden;connectable=0;fillColor=none;top=0;left=0;bottom=0;right=0;fontStyle=1;" parent="dpckr3BGX__RE5u1bgNl-121" vertex="1"><mxGeometry width="30" height="30" as="geometry"><mxRectangle width="30" height="30" as="alternateBounds"/></mxGeometry></mxCell><mxCell id="dpckr3BGX__RE5u1bgNl-123" value="price_id int NOT NULL " style="shape=partialRectangle;overflow=hidden;connectable=0;fillColor=none;top=0;left=0;bottom=0;right=0;align=left;spacingLeft=6;fontStyle=5;" parent="dpckr3BGX__RE5u1bgNl-121" vertex="1"><mxGeometry x="30" width="220" height="30" as="geometry"><mxRectangle width="220" height="30" as="alternateBounds"/></mxGeometry></mxCell><mxCell id="dpckr3BGX__RE5u1bgNl-124" value="" style="shape=partialRectangle;collapsible=0;dropTarget=0;pointerEvents=0;fillColor=none;points=[[0,0.5],[1,0.5]];portConstraint=eastwest;top=0;left=0;right=0;bottom=0;" parent="dpckr3BGX__RE5u1bgNl-120" vertex="1"><mxGeometry y="60" width="250" height="30" as="geometry"/></mxCell><mxCell id="dpckr3BGX__RE5u1bgNl-125" value="FK1" style="shape=partialRectangle;overflow=hidden;connectable=0;fillColor=none;top=0;left=0;bottom=0;right=0;" parent="dpckr3BGX__RE5u1bgNl-124" vertex="1"><mxGeometry width="30" height="30" as="geometry"><mxRectangle width="30" height="30" as="alternateBounds"/></mxGeometry></mxCell><mxCell id="dpckr3BGX__RE5u1bgNl-126" value="session_id int NOT NULL" style="shape=partialRectangle;overflow=hidden;connectable=0;fillColor=none;top=0;left=0;bottom=0;right=0;align=left;spacingLeft=6;" parent="dpckr3BGX__RE5u1bgNl-124" vertex="1"><mxGeometry x="30" width="220" height="30" as="geometry"><mxRectangle width="220" height="30" as="alternateBounds"/></mxGeometry></mxCell><mxCell id="dpckr3BGX__RE5u1bgNl-127" value="" style="shape=partialRectangle;collapsible=0;dropTarget=0;pointerEvents=0;fillColor=none;points=[[0,0.5],[1,0.5]];portConstraint=eastwest;top=0;left=0;right=0;bottom=0;" parent="dpckr3BGX__RE5u1bgNl-120" vertex="1"><mxGeometry y="90" width="250" height="30" as="geometry"/></mxCell><mxCell id="dpckr3BGX__RE5u1bgNl-128" value="FK2" style="shape=partialRectangle;overflow=hidden;connectable=0;fillColor=none;top=0;left=0;bottom=0;right=0;" parent="dpckr3BGX__RE5u1bgNl-127" vertex="1"><mxGeometry width="30" height="30" as="geometry"><mxRectangle width="30" height="30" as="alternateBounds"/></mxGeometry></mxCell><mxCell id="dpckr3BGX__RE5u1bgNl-129" value="seat_cat_id int2 NOT NULL" style="shape=partialRectangle;overflow=hidden;connectable=0;fillColor=none;top=0;left=0;bottom=0;right=0;align=left;spacingLeft=6;" parent="dpckr3BGX__RE5u1bgNl-127" vertex="1"><mxGeometry x="30" width="220" height="30" as="geometry"><mxRectangle width="220" height="30" as="alternateBounds"/></mxGeometry></mxCell><mxCell id="dpckr3BGX__RE5u1bgNl-140" value="" style="shape=partialRectangle;collapsible=0;dropTarget=0;pointerEvents=0;fillColor=none;points=[[0,0.5],[1,0.5]];portConstraint=eastwest;top=0;left=0;right=0;bottom=0;" parent="dpckr3BGX__RE5u1bgNl-120" vertex="1"><mxGeometry y="120" width="250" height="30" as="geometry"/></mxCell><mxCell id="dpckr3BGX__RE5u1bgNl-141" value="" style="shape=partialRectangle;overflow=hidden;connectable=0;fillColor=none;top=0;left=0;bottom=0;right=0;" parent="dpckr3BGX__RE5u1bgNl-140" vertex="1"><mxGeometry width="30" height="30" as="geometry"><mxRectangle width="30" height="30" as="alternateBounds"/></mxGeometry></mxCell><mxCell id="dpckr3BGX__RE5u1bgNl-142" value="value money NOT NULL" style="shape=partialRectangle;overflow=hidden;connectable=0;fillColor=none;top=0;left=0;bottom=0;right=0;align=left;spacingLeft=6;" parent="dpckr3BGX__RE5u1bgNl-140" vertex="1"><mxGeometry x="30" width="220" height="30" as="geometry"><mxRectangle width="220" height="30" as="alternateBounds"/></mxGeometry></mxCell><mxCell id="dpckr3BGX__RE5u1bgNl-130" value="" style="endArrow=ERzeroToMany;startArrow=ERone;endFill=1;startFill=0;entryX=0;entryY=0.5;entryDx=0;entryDy=0;exitX=0;exitY=0.5;exitDx=0;exitDy=0;edgeStyle=orthogonalEdgeStyle;" parent="1" target="dpckr3BGX__RE5u1bgNl-124" edge="1"><mxGeometry width="100" height="100" relative="1" as="geometry"><mxPoint x="-130" y="435" as="sourcePoint"/><mxPoint x="-150" y="225" as="targetPoint"/><Array as="points"><mxPoint x="-170" y="435"/><mxPoint x="-170" y="340"/><mxPoint x="-530" y="340"/><mxPoint x="-530" y="145"/></Array></mxGeometry></mxCell><mxCell id="dpckr3BGX__RE5u1bgNl-133" value="" style="endArrow=ERzeroToMany;startArrow=ERone;endFill=1;startFill=0;entryX=0;entryY=0.5;entryDx=0;entryDy=0;exitX=0;exitY=0.5;exitDx=0;exitDy=0;edgeStyle=orthogonalEdgeStyle;" parent="1" source="dpckr3BGX__RE5u1bgNl-78" target="dpckr3BGX__RE5u1bgNl-127" edge="1"><mxGeometry width="100" height="100" relative="1" as="geometry"><mxPoint x="-120" y="445" as="sourcePoint"/><mxPoint x="-450" y="255" as="targetPoint"/><Array as="points"><mxPoint x="-510" y="695"/><mxPoint x="-510" y="175"/></Array></mxGeometry></mxCell><mxCell id="dpckr3BGX__RE5u1bgNl-146" value="" style="endArrow=ERzeroToMany;startArrow=ERone;endFill=1;startFill=0;entryX=0;entryY=0.5;entryDx=0;entryDy=0;exitX=1;exitY=0.5;exitDx=0;exitDy=0;edgeStyle=orthogonalEdgeStyle;" parent="1" source="dpckr3BGX__RE5u1bgNl-121" target="dpckr3BGX__RE5u1bgNl-143" edge="1"><mxGeometry width="100" height="100" relative="1" as="geometry"><mxPoint x="-120" y="435" as="sourcePoint"/><mxPoint x="-130" y="124.99999999999989" as="targetPoint"/><Array as="points"><mxPoint x="-170" y="115"/><mxPoint x="-170" y="180"/></Array></mxGeometry></mxCell><mxCell id="2" value="" style="endArrow=ERzeroToMany;startArrow=ERone;endFill=1;startFill=0;entryX=1;entryY=0.5;entryDx=0;entryDy=0;exitX=1;exitY=0.5;exitDx=0;exitDy=0;edgeStyle=orthogonalEdgeStyle;" parent="1" source="dpckr3BGX__RE5u1bgNl-67" target="dpckr3BGX__RE5u1bgNl-62" edge="1"><mxGeometry width="100" height="100" relative="1" as="geometry"><mxPoint x="-120" y="435" as="sourcePoint"/><mxPoint x="-50" y="150.00000000000023" as="targetPoint"/><Array as="points"><mxPoint x="470" y="545"/><mxPoint x="470" y="160"/></Array></mxGeometry></mxCell><mxCell id="18" value="" style="fontSize=12;html=1;endArrow=ERoneToMany;startArrow=ERmandOne;rounded=1;exitX=0;exitY=0.5;exitDx=0;exitDy=0;entryX=0;entryY=0.5;entryDx=0;entryDy=0;edgeStyle=orthogonalEdgeStyle;" parent="1" source="dpckr3BGX__RE5u1bgNl-2" target="dpckr3BGX__RE5u1bgNl-70" edge="1"><mxGeometry width="100" height="100" relative="1" as="geometry"><mxPoint x="-140" y="670" as="sourcePoint"/><mxPoint x="-40" y="570" as="targetPoint"/><Array as="points"><mxPoint x="-490" y="425"/><mxPoint x="-490" y="570"/></Array></mxGeometry></mxCell><mxCell id="19" value="" style="endArrow=ERzeroToMany;startArrow=ERone;endFill=1;startFill=0;entryX=1;entryY=0.5;entryDx=0;entryDy=0;exitX=0;exitY=0.5;exitDx=0;exitDy=0;edgeStyle=orthogonalEdgeStyle;" parent="1" source="dpckr3BGX__RE5u1bgNl-26" target="dpckr3BGX__RE5u1bgNl-46" edge="1"><mxGeometry width="100" height="100" relative="1" as="geometry"><mxPoint x="-200" y="555" as="sourcePoint"/><mxPoint x="260" y="170" as="targetPoint"/><Array as="points"><mxPoint x="150" y="428"/><mxPoint x="150" y="470"/></Array></mxGeometry></mxCell><mxCell id="20" value="" style="endArrow=ERzeroToMany;startArrow=ERone;endFill=1;startFill=0;entryX=0;entryY=0.5;entryDx=0;entryDy=0;exitX=1;exitY=0.5;exitDx=0;exitDy=0;edgeStyle=orthogonalEdgeStyle;" parent="1" source="dpckr3BGX__RE5u1bgNl-2" target="dpckr3BGX__RE5u1bgNl-43" edge="1"><mxGeometry width="100" height="100" relative="1" as="geometry"><mxPoint x="200" y="437.5" as="sourcePoint"/><mxPoint x="130" y="480" as="targetPoint"/><Array as="points"><mxPoint x="-180" y="425"/><mxPoint x="-180" y="450"/></Array></mxGeometry></mxCell></root></mxGraphModel></diagram></mxfile>